<?xml version="1.0" encoding="UTF-8" standalone="no"?>
<!DOCTYPE svg PUBLIC "-//W3C//DTD SVG 1.1//EN" "http://www.w3.org/Graphics/SVG/1.1/DTD/svg11.dtd">
<svg version="1.1" xmlns="http://www.w3.org/2000/svg" xmlns:xlink="http://www.w3.org/1999/xlink" preserveAspectRatio="xMidYMid meet" viewBox="0 0 640 640" width="640" height="640"><defs><path d="M564.26 527.79L588.03 140.9L567.54 140.9L546.23 508.93L110.16 522.87L112.62 126.97L581.48 112.21L579.02 88.44L84.75 102.38L84.75 547.46L564.26 527.79Z" id="bKvO0uIzY"></path><path d="M153.61 431.07L156.07 166.31L514.26 155.66L509.34 473.69L136.39 483.52L136.39 508.11L530.66 495.82L543.77 131.07L133.93 145.82L126.56 431.07L153.61 431.07Z" id="b37ADGQS5L"></path><path d="M488.85 453.2L491.31 226.15L470.82 226.15L459.34 424.51L202.79 437.62L198.69 205.66L483.93 196.64L483.93 175.33L177.38 185.98L180.66 459.75L488.85 453.2Z" id="a9jQSgifby"></path><path d="M427.38 232.7L427.38 412.21L451.15 412.21L451.15 208.93L216.72 220.41L216.72 241.72L427.38 232.7Z" id="giuhSXGDm"></path></defs><g><g><g><g><use xlink:href="#bKvO0uIzY" opacity="1" fill-opacity="0" stroke="#000000" stroke-width="1" stroke-opacity="1"></use></g></g><g><g><use xlink:href="#b37ADGQS5L" opacity="1" fill-opacity="0" stroke="#000000" stroke-width="1" stroke-opacity="1"></use></g></g><g><g><use xlink:href="#a9jQSgifby" opacity="1" fill-opacity="0" stroke="#000000" stroke-width="1" stroke-opacity="1"></use></g></g><g><g><use xlink:href="#giuhSXGDm" opacity="1" fill-opacity="0" stroke="#000000" stroke-width="1" stroke-opacity="1"></use></g></g></g></g></svg>